<svg width="168" height="39" viewBox="0 0 168 39" fill="none" xmlns="http://www.w3.org/2000/svg">
<path d="M23.5909 0.90909V30H20.1818L4.32955 7.15909H4.04546V30H0.522728V0.90909H3.93182L19.8409 23.8068H20.125V0.90909H23.5909Z" fill="url(#paint0_linear_7_3)"/>
<path d="M53.7081 0.90909V30H50.299L34.4467 7.15909H34.1626V30H30.6399V0.90909H34.049L49.9581 23.8068H50.2422V0.90909H53.7081Z" fill="url(#paint1_linear_7_3)"/>
<path d="M84.1662 10H80.6435C80.4351 8.98674 80.0706 8.09659 79.5497 7.32954C79.0384 6.5625 78.4134 5.91856 77.6747 5.39773C76.9456 4.86742 76.1359 4.4697 75.2457 4.20454C74.3556 3.93939 73.4276 3.80682 72.4616 3.80682C70.7003 3.80682 69.1046 4.25189 67.6747 5.14204C66.2543 6.0322 65.1226 7.34375 64.2798 9.0767C63.4465 10.8097 63.0298 12.9356 63.0298 15.4545C63.0298 17.9735 63.4465 20.0994 64.2798 21.8324C65.1226 23.5653 66.2543 24.8769 67.6747 25.767C69.1046 26.6572 70.7003 27.1023 72.4616 27.1023C73.4276 27.1023 74.3556 26.9697 75.2457 26.7045C76.1359 26.4394 76.9456 26.0464 77.6747 25.5256C78.4134 24.9953 79.0384 24.3466 79.5497 23.5795C80.0706 22.803 80.4351 21.9129 80.6435 20.9091H84.1662C83.901 22.3958 83.4181 23.7263 82.7173 24.9006C82.0166 26.0748 81.1454 27.0739 80.1037 27.8977C79.062 28.7121 77.8925 29.3324 76.5952 29.7585C75.3073 30.1847 73.9294 30.3977 72.4616 30.3977C69.9806 30.3977 67.7741 29.7917 65.8423 28.5795C63.9105 27.3674 62.3906 25.6439 61.2827 23.4091C60.1747 21.1742 59.6207 18.5227 59.6207 15.4545C59.6207 12.3864 60.1747 9.73485 61.2827 7.5C62.3906 5.26515 63.9105 3.54167 65.8423 2.32954C67.7741 1.11742 69.9806 0.511362 72.4616 0.511362C73.9294 0.511362 75.3073 0.72443 76.5952 1.15057C77.8925 1.5767 79.062 2.2017 80.1037 3.02557C81.1454 3.83996 82.0166 4.83428 82.7173 6.00852C83.4181 7.17329 83.901 8.50379 84.1662 10Z" fill="url(#paint2_linear_7_3)"/>
<path d="M98.2678 30.4545C96.2981 30.4545 94.5698 29.9858 93.0831 29.0483C91.6058 28.1108 90.4505 26.7992 89.6172 25.1136C88.7933 23.428 88.3814 21.4583 88.3814 19.2045C88.3814 16.9318 88.7933 14.9479 89.6172 13.2528C90.4505 11.5578 91.6058 10.2415 93.0831 9.30398C94.5698 8.36648 96.2981 7.89773 98.2678 7.89773C100.237 7.89773 101.961 8.36648 103.438 9.30398C104.925 10.2415 106.08 11.5578 106.904 13.2528C107.737 14.9479 108.154 16.9318 108.154 19.2045C108.154 21.4583 107.737 23.428 106.904 25.1136C106.08 26.7992 104.925 28.1108 103.438 29.0483C101.961 29.9858 100.237 30.4545 98.2678 30.4545ZM98.2678 27.4432C99.764 27.4432 100.995 27.0597 101.961 26.2926C102.927 25.5256 103.642 24.517 104.106 23.267C104.57 22.017 104.802 20.6629 104.802 19.2045C104.802 17.7462 104.57 16.3873 104.106 15.1278C103.642 13.8684 102.927 12.8504 101.961 12.0739C100.995 11.2973 99.764 10.9091 98.2678 10.9091C96.7715 10.9091 95.5405 11.2973 94.5746 12.0739C93.6087 12.8504 92.8937 13.8684 92.4297 15.1278C91.9657 16.3873 91.7337 17.7462 91.7337 19.2045C91.7337 20.6629 91.9657 22.017 92.4297 23.267C92.8937 24.517 93.6087 25.5256 94.5746 26.2926C95.5405 27.0597 96.7715 27.4432 98.2678 27.4432Z" fill="url(#paint3_linear_7_3)"/>
<path d="M113.271 30V8.18182H116.51V11.5909H116.794C117.249 10.4261 117.982 9.52178 118.996 8.87784C120.009 8.22443 121.226 7.89773 122.646 7.89773C124.086 7.89773 125.284 8.22443 126.24 8.87784C127.206 9.52178 127.959 10.4261 128.499 11.5909H128.726C129.285 10.464 130.123 9.56913 131.24 8.90625C132.357 8.2339 133.697 7.89773 135.26 7.89773C137.211 7.89773 138.806 8.50852 140.047 9.73011C141.287 10.9422 141.908 12.8314 141.908 15.3977V30H138.555V15.3977C138.555 13.7879 138.115 12.6373 137.234 11.946C136.354 11.2547 135.317 10.9091 134.124 10.9091C132.589 10.9091 131.401 11.3731 130.558 12.3011C129.715 13.2197 129.294 14.3845 129.294 15.7955V30H125.885V15.0568C125.885 13.8163 125.482 12.8172 124.678 12.0597C123.873 11.2926 122.836 10.9091 121.567 10.9091C120.696 10.9091 119.881 11.1411 119.124 11.6051C118.375 12.0691 117.769 12.7131 117.305 13.5369C116.851 14.3513 116.624 15.2936 116.624 16.3636V30H113.271Z" fill="url(#paint4_linear_7_3)"/>
<path d="M148.037 38.1818V8.18182H151.276V11.6477H151.673C151.92 11.2689 152.26 10.786 152.696 10.1989C153.141 9.60227 153.776 9.07197 154.599 8.60795C155.433 8.13447 156.56 7.89773 157.98 7.89773C159.817 7.89773 161.437 8.35701 162.838 9.27557C164.24 10.1941 165.333 11.4962 166.119 13.1818C166.905 14.8674 167.298 16.8561 167.298 19.1477C167.298 21.4583 166.905 23.4612 166.119 25.1562C165.333 26.8419 164.244 28.1487 162.852 29.0767C161.46 29.9953 159.855 30.4545 158.037 30.4545C156.635 30.4545 155.513 30.2225 154.67 29.7585C153.828 29.285 153.179 28.75 152.724 28.1534C152.27 27.5473 151.92 27.0455 151.673 26.6477H151.389V38.1818H148.037ZM151.332 19.0909C151.332 20.7386 151.574 22.1922 152.057 23.4517C152.54 24.7017 153.245 25.6818 154.173 26.392C155.101 27.0928 156.238 27.4432 157.582 27.4432C158.984 27.4432 160.153 27.0739 161.091 26.3352C162.038 25.5871 162.748 24.5833 163.222 23.3239C163.705 22.0549 163.946 20.6439 163.946 19.0909C163.946 17.5568 163.709 16.1742 163.236 14.9432C162.772 13.7027 162.066 12.7225 161.119 12.0028C160.182 11.2737 159.003 10.9091 157.582 10.9091C156.219 10.9091 155.073 11.2547 154.145 11.946C153.217 12.6278 152.516 13.5843 152.043 14.8153C151.569 16.0369 151.332 17.4621 151.332 19.0909Z" fill="url(#paint5_linear_7_3)"/>
<defs>
<linearGradient id="paint0_linear_7_3" x1="201.411" y1="29.1409" x2="-33.5905" y2="29.1409" gradientUnits="userSpaceOnUse">
<stop stop-color="#D57CFF"/>
<stop offset="0.5" stop-color="#6B95FF"/>
<stop offset="1" stop-color="#8AF8FF"/>
</linearGradient>
<linearGradient id="paint1_linear_7_3" x1="201.411" y1="29.1409" x2="-33.5905" y2="29.1409" gradientUnits="userSpaceOnUse">
<stop stop-color="#D57CFF"/>
<stop offset="0.5" stop-color="#6B95FF"/>
<stop offset="1" stop-color="#8AF8FF"/>
</linearGradient>
<linearGradient id="paint2_linear_7_3" x1="201.411" y1="29.1409" x2="-33.5905" y2="29.1409" gradientUnits="userSpaceOnUse">
<stop stop-color="#D57CFF"/>
<stop offset="0.5" stop-color="#6B95FF"/>
<stop offset="1" stop-color="#8AF8FF"/>
</linearGradient>
<linearGradient id="paint3_linear_7_3" x1="201.411" y1="29.1409" x2="-33.5905" y2="29.1409" gradientUnits="userSpaceOnUse">
<stop stop-color="#D57CFF"/>
<stop offset="0.5" stop-color="#6B95FF"/>
<stop offset="1" stop-color="#8AF8FF"/>
</linearGradient>
<linearGradient id="paint4_linear_7_3" x1="201.411" y1="29.1409" x2="-33.5905" y2="29.1409" gradientUnits="userSpaceOnUse">
<stop stop-color="#D57CFF"/>
<stop offset="0.5" stop-color="#6B95FF"/>
<stop offset="1" stop-color="#8AF8FF"/>
</linearGradient>
<linearGradient id="paint5_linear_7_3" x1="201.411" y1="29.1409" x2="-33.5905" y2="29.1409" gradientUnits="userSpaceOnUse">
<stop stop-color="#D57CFF"/>
<stop offset="0.5" stop-color="#6B95FF"/>
<stop offset="1" stop-color="#8AF8FF"/>
</linearGradient>
</defs>
</svg>
